<?xml version="1.0" encoding="utf-8"?>
<!DOCTYPE svg PUBLIC "-//W3C//DTD SVG 1.1//EN" "http://www.w3.org/Graphics/SVG/1.1/DTD/svg11.dtd">
<svg xmlns="http://www.w3.org/2000/svg" xmlns:xlink="http://www.w3.org/1999/xlink" style="display: none">

	<symbol id="users" viewBox="0 0 100 100">
		<g>
			<path fill="currentColor" d="M79.5,39.3c0,9.8-7.2,17.8-13.8,17.8c-5.9,0-13.8-8-13.8-17.8c0-9.8,3.7-17.8,13.8-17.8
				C76.1,21.5,79.5,29.5,79.5,39.3"/>
			<path fill="currentColor" d="M27.9,56.1H15.2c0,0-6.2-34.5,16.7-34.6l0,0c0.1,0,0.2,0,0.4,0c0.1,0,0.2,0,0.4,0l0,0
				c22.9,0.1,16.7,34.6,16.7,34.6H36.7c0,0,4.8-1.3,6.7-15c0,0-6.7,0.3-9.3-5.1c0,0-5.3,6.6-12.9,5.6C21.2,41.6,20.7,51.8,27.9,56.1"
				/>
			<path fill="currentColor" d="M23.8,60.5c0,0-21.4,1.1-20.2,17.9H30l-9.6-9.6l3-3h-4.3L23.8,60.5z"/>
			<path fill="currentColor" d="M76,59.3l-7.2,11.2L67.5,64l1.9-4h-7.3l2.1,4l-1.4,6.5l-7.2-11.2C33,61.3,35,78.5,35,78.5h61.5
				C96.3,59.6,76,59.3,76,59.3z"/>
		</g>
	</symbol>

	<symbol id="truck" viewBox="0 0 100 100">
		<g>
			<path fill="currentColor" d="M35.6,57.6c-3.7,0-7,3-7.3,6.7C28,68,30.7,71,34.5,71c3.7,0,7-3,7.3-6.7C42.1,60.6,39.3,57.6,35.6,57.6z
				 M34.7,67.6c-1.8,0-3.2-1.5-3-3.3c0.2-1.8,1.8-3.3,3.6-3.3c1.8,0,3.2,1.5,3,3.3C38.2,66.1,36.6,67.6,34.7,67.6z"/>
			<path fill="currentColor" d="M90.6,47l-7.4-8.1c-0.8-0.9-2.5-1.6-3.7-1.6h-6.8h-2.2l0.6-6.7c0.1-1.2-0.8-2.2-2.1-2.2h-45
				c-1.2,0-2.3,1-2.4,2.2l0,0.4h-5.8c-0.7,0-1.4,0.6-1.4,1.3c-0.1,0.7,0.5,1.3,1.2,1.3h5.8H35c0.7,0,1.3,0.6,1.2,1.3
				c-0.1,0.7-0.7,1.3-1.4,1.3H21.1H10.5c-0.7,0-1.4,0.6-1.4,1.3C8.9,38.4,9.5,39,10.2,39h10.7h10.3c0.7,0,1.3,0.6,1.2,1.3
				c-0.1,0.7-0.7,1.3-1.4,1.3H20.7h-7.6c-0.7,0-1.4,0.6-1.4,1.3c-0.1,0.7,0.5,1.3,1.2,1.3h7.6h15.7c0.7,0,1.3,0.6,1.2,1.3
				c-0.1,0.7-0.7,1.3-1.4,1.3H20.2H8c-0.7,0-1.4,0.6-1.5,1.3c-0.1,0.7,0.5,1.3,1.2,1.3H20h7.7c0.7,0,1.3,0.6,1.2,1.3
				c-0.1,0.7-0.7,1.3-1.4,1.3h-7.7l-0.8,9.7c-0.1,1.2,0.8,2.2,2.1,2.2h5.6c0.4-4.6,4.5-8.4,9.2-8.4c4.7,0,8.1,3.8,7.7,8.4h24.8h2.2
				c0.4-4.6,4.5-8.4,9.2-8.4c4.7,0,8.1,3.8,7.7,8.4h1.1c1.2,0,2.3-1,2.4-2.2l1-11.2C92,49.6,91.4,47.9,90.6,47z M71.9,47.5l0.7-7.9
				h6.8c0.6,0,1.8,0.5,2.2,0.9l6.3,6.9H71.9z"/>
			<path fill="currentColor" d="M79.5,57.6c-3.7,0-7,3-7.3,6.7C71.8,68,74.6,71,78.3,71c3.7,0,7-3,7.3-6.7C86,60.6,83.2,57.6,79.5,57.6z
				 M78.6,67.6c-1.8,0-3.2-1.5-3-3.3c0.2-1.8,1.8-3.3,3.6-3.3c1.8,0,3.2,1.5,3,3.3C82.1,66.1,80.5,67.6,78.6,67.6z"/>
		</g>
	</symbol>

	<symbol id="table" viewBox="0 0 100 100">
		<g>
			<path fill="currentColor" d="M78.6,30.8L49.9,19.4c-0.1-0.1-0.3-0.1-0.4-0.1c0,0-0.1,0-0.1,0c-0.1,0-0.2,0-0.3,0.1l0,0c0,0,0,0,0,0
				L19.5,30.8c-0.5,0.2-0.9,0.8-0.8,1.3c0.1,0.6,0.6,1,1.2,1h17.8h10.5v22.6H35.3c0,0,0,0,0,0s0,0,0,0h-1.9c-0.7,0-1.2,0.5-1.2,1.2
				c0,0.7,0.5,1.2,1.2,1.2h0.7v1.2c0,1.8,1.5,3.3,3.3,3.3h10.8v15.5h-5.1c-0.7,0-1.2,0.5-1.2,1.2c0,0.7,0.5,1.2,1.2,1.2h6.1
				c0.1,0,0.1,0,0.2,0s0.1,0,0.2,0h5c0.7,0,1.2-0.5,1.2-1.2c0-0.7-0.5-1.2-1.2-1.2h-4V62.7h10.5c1.8,0,3.3-1.5,3.3-3.3v-1.2h0.8
				c0.7,0,1.2-0.5,1.2-1.2c0-0.7-0.5-1.2-1.2-1.2h-2c0,0,0,0,0,0s0,0,0,0H50.6V33.1H61h17.1c0.6,0,1.1-0.4,1.2-1S79.1,31,78.6,30.8z
				 M37.4,60.3c-0.5,0-0.9-0.4-0.9-0.9v-1.2h11.7v2.1H37.4z M62,58.2v1.2c0,0.5-0.4,0.9-0.9,0.9H50.6v-2.1H62z M44.3,23.8l-7.1,6.9
				H26.4L44.3,23.8z M40.7,30.7l8.7-8.5l8.7,8.5H40.7z M61.5,30.7l-7-6.9l17.3,6.9H61.5z"/>
			<path fill="currentColor" d="M32.3,64.5H23l-1.9-15.8c-0.1-0.7-0.7-1.1-1.3-1.1c-0.7,0.1-1.1,0.7-1.1,1.3l2,16.8v4.3v4.7c0,0,0,0,0,0
				s0,0,0,0v4.6c0,0.7,0.5,1.2,1.2,1.2s1.2-0.5,1.2-1.2V76h8.3v3.5c0,0.7,0.5,1.2,1.2,1.2c0.7,0,1.2-0.5,1.2-1.2v-8.6
				c1.1-0.6,1.9-1.7,1.9-3C35.7,66,34.2,64.5,32.3,64.5z M33.3,67.9c0,0.6-0.5,1-1,1h-9.2v-2h9.2C32.8,66.9,33.3,67.3,33.3,67.9z
				 M23.1,73.6v-2.3h8.3v2.3H23.1z"/>
			<path fill="currentColor" d="M78.1,47.6c-0.7-0.1-1.3,0.4-1.3,1.1l-1.9,15.8h-9.3c-1.9,0-3.4,1.5-3.4,3.4c0,1.3,0.8,2.5,1.9,3v3.9
				c0,0,0,0,0,0s0,0,0,0v4.7c0,0.7,0.5,1.2,1.2,1.2s1.2-0.5,1.2-1.2V76h8.3v3.4c0,0.7,0.5,1.2,1.2,1.2s1.2-0.5,1.2-1.2V65.7l2-16.8
				C79.2,48.3,78.7,47.7,78.1,47.6z M65.6,66.9h9.2v2h-9.2c-0.6,0-1-0.5-1-1C64.5,67.3,65,66.9,65.6,66.9z M66.4,73.6v-2.3h8.3v2.3
				H66.4z"/>
		</g>
	</symbol>

	<symbol id="price" viewBox="0 0 100 100">
		<g>
			<path fill="currentColor" d="M77.9,55.4L52.2,29.3c-0.3-0.3-0.7-0.5-1.2-0.5l-19.2,0.9c-0.8,0-1.4,0.7-1.5,1.5l-0.5,8
				c-0.9-0.4-1.7-0.9-2.5-1.5c-3.6-3-4.6-7.8-2.2-10.8c2.4-3,7.4-3,11-0.1c0.7,0.5,1.2,1.1,1.7,1.8c0.5,0.7,1.5,0.8,2.2,0.3
				c0.7-0.5,0.8-1.5,0.3-2.2c-0.6-0.9-1.4-1.7-2.3-2.4c-5-4.1-11.9-3.8-15.4,0.5c-3.5,4.3-2.4,11.2,2.6,15.2c1.3,1.1,2.7,1.8,4.2,2.3
				l-0.5,8.6c0,0.4,0.1,0.9,0.5,1.2l26.4,26.4c0.3,0.3,0.7,0.5,1.1,0.5c0,0,0,0,0,0c0.4,0,0.8-0.2,1.1-0.5l19.7-21.1
				C78.5,56.9,78.5,56,77.9,55.4z M57,75.3L32.3,50.6l0.5-7.5c0.2,0,0.4,0,0.5,0c0.1,0,0.2,0,0.3,0c3-0.1,5.6-1.3,7.3-3.4
				c0.5-0.7,0.4-1.6-0.2-2.2c-0.7-0.5-1.6-0.4-2.2,0.2c-1.2,1.4-2.9,2.2-4.9,2.3c-0.2,0-0.4,0-0.5,0l0.4-7.1L50.5,32l24.1,24.5
				L57,75.3z"/>
			<path fill="currentColor" d="M44.6,43.8l-2,2.2l1.2,1.1c-2.1,2.9-2.2,6.1,0.1,8.2l0,0c2.5,2.3,5,1.8,8.6-0.5l3.4,3c-1.4,1-2.9,1.5-4.8,1.9
				l0.9,3.8c2.3-0.4,4.6-1.6,6.5-3.2l2.1,1.9l2-2.2l-2.1-1.9c2.1-2.9,2.2-6.1-0.1-8.3l0,0c-2.4-2.1-4.9-1.9-8.7,0.5l-3.2-2.9
				c1-0.7,2.3-1.2,3.6-1.5L51,42.4c-1.9,0.4-3.6,1.2-5.1,2.5L44.6,43.8z M57.9,53.2L57.9,53.2c0.8,0.7,0.8,1.6,0,2.8l-3-2.7
				C56.4,52.5,57.2,52.5,57.9,53.2z M46.6,49.4l2.9,2.6c-1.5,0.8-2.2,0.7-2.8,0.1l0,0C45.9,51.4,45.8,50.5,46.6,49.4z"/>
		</g>
	</symbol>

	<symbol id="map" viewBox="0 0 100 100">
		<path fill="currentColor" d="M71.5,42.8c0-12-9.7-21.8-21.8-21.8c-12,0-21.8,9.7-21.8,21.8c0,4.6,1.4,8.9,3.9,12.5h0l1.6,2.4l14.8,21.6
			c0.6,0.9,1.9,0.9,2.5,0l9.7-13.8l7.1-10.2h0C70,51.7,71.5,47.4,71.5,42.8 M49.7,58c-8.6,0-15.6-7-15.6-15.6c0-8.6,7-15.6,15.6-15.6
			c8.6,0,15.6,7,15.6,15.6C65.3,51,58.3,58,49.7,58"/>
	</symbol>

	<symbol id="email" viewBox="0 0 100 100">
		<g>
			<path fill="currentColor" d="M77,31.4L55.6,52.9l21.6,15.4c0.3-0.5,0.5-1.2,0.5-1.8v-33C77.7,32.7,77.4,32,77,31.4z"/>
			<path fill="currentColor" d="M75.2,30c-0.4-0.1-0.8-0.2-1.2-0.2H23.6c-0.4,0-0.8,0.1-1.2,0.2l26.4,26.5L75.2,30z"/>
			<path fill="currentColor" d="M49.6,58.9c-0.2,0.2-0.5,0.3-0.8,0.3s-0.6-0.1-0.8-0.3l-4-4l-21,15.3c0.2,0,0.4,0.1,0.7,0.1H74
				c0.5,0,1-0.1,1.5-0.3L53.9,54.6L49.6,58.9z"/>
			<path fill="currentColor" d="M20.5,31.4c-0.4,0.6-0.6,1.3-0.6,2.1v33c0,0.9,0.3,1.7,0.9,2.4l21.5-15.7L20.5,31.4z"/>
		</g>
	</symbol>

	<symbol id="call" viewBox="0 0 100 100">
		<g>
			<path fill="currentColor" d="M72.5,61.5L61,45.8v-2.9c0-0.6-0.9-0.7-0.9-0.7l-3.4,0c-0.9,0-0.9,0.7-0.9,0.7v2.4H44.2v-2.4
				c-0.1-0.9-1.3-0.7-1.3-0.7l-2.2,0c-1.6,0-1.8,0.7-1.8,0.7v2.9L27.4,61.6l0,9.4c0,1.5,1.6,1.6,1.6,1.6h42c1.9-0.2,1.6-1.6,1.6-1.6
				V61.5z M44.2,62.7c-1,0-1.9-0.9-1.9-1.9c0-1.1,0.9-1.9,1.9-1.9s1.9,0.9,1.9,1.9C46.1,61.9,45.3,62.7,44.2,62.7z M44.2,58
				c-1,0-1.9-0.9-1.9-1.9c0-1.1,0.9-1.9,1.9-1.9s1.9,0.8,1.9,1.9C46.1,57.1,45.3,58,44.2,58z M44.2,53.2c-1,0-1.9-0.9-1.9-1.9
				c0-1.1,0.9-1.9,1.9-1.9s1.9,0.8,1.9,1.9C46.1,52.4,45.3,53.2,44.2,53.2z M49.9,62.7c-1,0-1.9-0.9-1.9-1.9c0-1.1,0.9-1.9,1.9-1.9
				s1.9,0.9,1.9,1.9C51.8,61.9,51,62.7,49.9,62.7z M49.9,58c-1,0-1.9-0.9-1.9-1.9c0-1.1,0.9-1.9,1.9-1.9s1.9,0.8,1.9,1.9
				C51.8,57.1,51,58,49.9,58z M49.9,53.2c-1,0-1.9-0.9-1.9-1.9c0-1.1,0.9-1.9,1.9-1.9s1.9,0.8,1.9,1.9C51.8,52.4,51,53.2,49.9,53.2z
				 M55.6,62.7c-1.1,0-1.9-0.9-1.9-1.9c0-1.1,0.9-1.9,1.9-1.9c1,0,1.9,0.9,1.9,1.9C57.5,61.9,56.7,62.7,55.6,62.7z M55.6,58
				c-1.1,0-1.9-0.9-1.9-1.9c0-1.1,0.9-1.9,1.9-1.9c1,0,1.9,0.8,1.9,1.9C57.5,57.1,56.7,58,55.6,58z M55.6,53.2c-1.1,0-1.9-0.9-1.9-1.9
				c0-1.1,0.9-1.9,1.9-1.9c1,0,1.9,0.8,1.9,1.9C57.5,52.4,56.7,53.2,55.6,53.2z"/>
			<path fill="currentColor" d="M33.6,47.6H22.6c0.2,1,0.8,3.3,3.1,3.2h4.7C30.4,50.8,33.7,51.2,33.6,47.6z"/>
			<path fill="currentColor" d="M68.6,50.8h4.7c2.3,0,3-2.3,3.1-3.2H65.4C65.3,51.2,68.6,50.8,68.6,50.8z"/>
			<path fill="currentColor" d="M35.1,40.2c0,0,1.1-2.8,6.6-3.8c0,0,5.2-0.7,14.2-0.1c6.5,0.8,8.1,3.9,8.1,3.9c1.1,1.7,1.4,3.7,1.5,5.1h11.2
				c0-4.5-1.9-15.8-20.2-16.9l0,0c-1.6-0.2-4.4-0.2-6.9-0.2c-2.4,0-5.3,0-6.9,0.2l0,0c-18.3,1-20.2,12.4-20.2,16.9h11.2
				C33.7,43.9,34,41.9,35.1,40.2z"/>
		</g>
	</symbol>

	<symbol id="call-cropped" viewBox="0 0 54.2 44.4" > 
		<path fill="currentColor" class="st0" d="M50,33.3L38.5,17.6v-2.9c0-0.6-0.9-0.7-0.9-0.7h-3.4c-0.9,0-0.9,0.7-0.9,0.7v2.4H21.7v-2.4
		c-0.1-0.9-1.3-0.7-1.3-0.7h-2.2c-1.6,0-1.8,0.7-1.8,0.7v2.9L4.9,33.4v9.4c0,1.5,1.6,1.6,1.6,1.6h42c1.9-0.2,1.6-1.6,1.6-1.6
		L50,33.3L50,33.3z M21.7,34.5c-1,0-1.9-0.9-1.9-1.9c0-1.1,0.9-1.9,1.9-1.9s1.9,0.9,1.9,1.9C23.6,33.7,22.8,34.5,21.7,34.5z
		M21.7,29.8c-1,0-1.9-0.9-1.9-1.9c0-1.1,0.9-1.9,1.9-1.9s1.9,0.8,1.9,1.9C23.6,28.9,22.8,29.8,21.7,29.8z M21.7,25
		c-1,0-1.9-0.9-1.9-1.9c0-1.1,0.9-1.9,1.9-1.9s1.9,0.8,1.9,1.9C23.6,24.2,22.8,25,21.7,25z M27.4,34.5c-1,0-1.9-0.9-1.9-1.9
		c0-1.1,0.9-1.9,1.9-1.9s1.9,0.9,1.9,1.9C29.3,33.7,28.5,34.5,27.4,34.5z M27.4,29.8c-1,0-1.9-0.9-1.9-1.9c0-1.1,0.9-1.9,1.9-1.9
		s1.9,0.8,1.9,1.9C29.3,28.9,28.5,29.8,27.4,29.8z M27.4,25c-1,0-1.9-0.9-1.9-1.9c0-1.1,0.9-1.9,1.9-1.9s1.9,0.8,1.9,1.9
		C29.3,24.2,28.5,25,27.4,25z M33.1,34.5c-1.1,0-1.9-0.9-1.9-1.9c0-1.1,0.9-1.9,1.9-1.9s1.9,0.9,1.9,1.9
		C35,33.7,34.2,34.5,33.1,34.5z M33.1,29.8c-1.1,0-1.9-0.9-1.9-1.9c0-1.1,0.9-1.9,1.9-1.9s1.9,0.8,1.9,1.9
		C35,28.9,34.2,29.8,33.1,29.8z M33.1,25c-1.1,0-1.9-0.9-1.9-1.9c0-1.1,0.9-1.9,1.9-1.9S35,22,35,23.1S34.2,25,33.1,25z"/>
		<path fill="currentColor" d="M11.1,19.4h-11c0.2,1,0.8,3.3,3.1,3.2h4.7C7.9,22.6,11.2,23,11.1,19.4z"/>
		<path fill="currentColor" d="M46.1,22.6h4.7c2.3,0,3-2.3,3.1-3.2h-11C42.8,23,46.1,22.6,46.1,22.6z"/>
		<path fill="currentColor" d="M12.6,12c0,0,1.1-2.8,6.6-3.8c0,0,5.2-0.7,14.2-0.1c6.5,0.8,8.1,3.9,8.1,3.9c1.1,1.7,1.4,3.7,1.5,5.1h11.2
		c0-4.5-1.9-15.8-20.2-16.9l0,0C32.4,0,29.6,0,27.1,0c-2.4,0-5.3,0-6.9,0.2l0,0C1.9,1.2,0,12.6,0,17.1h11.2
		C11.2,15.7,11.5,13.7,12.6,12z"/>
	</symbol>

	<symbol id="arrow-down" viewBox="0 0 24 24">
		<path fill="currentColor" d="M12,15.586l-10-10L0.586,7l10.707,10.707C11.488,17.902,11.744,18,12,18s0.512-0.098,0.707-0.293L23.414,7L22,5.586
		L12,15.586z"/>
	</symbol>

	<symbol id="arrow-right" viewBox="0 0 24 24">
		<path fill="currentColor" d="M7,23.414l10.707-10.707c0.391-0.391,0.391-1.023,0-1.414L7,0.586L5.586,2l10,10l-10,10L7,23.414z"/>
	</symbol>

	<symbol id="social-facebook" viewBox="0 0 24 24">
		<path fill="currentColor" d="M23,0H1C0.44772,0,0,0.44771,0,1v22c0,0.55228,0.44772,1,1,1h12v-9h-3v-4h3V8.41269
		c0-3.09988,1.8933-4.78783,4.65861-4.78783c1.32461,0,2.46305,0.09862,2.79482,0.1427v3.23956l-1.91789,0.00087
		c-1.50393,0-1.79513,0.71465-1.79513,1.76334V11h4.44044l-1,4h-3.44044v9H23c0.55228,0,1-0.44772,1-1V1C24,0.44771,23.55228,0,23,0z
		"/>		
	</symbol>


	
	<symbol id="social-instagram" viewBox="0 0 24 24">
		<path fill="currentColor" d="M21.986,2.014c-1.375-1.375-3.088-1.853-5.038-1.942C15.668,0.014,15.259,0,12,0S8.332,0.014,7.052,0.072
		c-1.95,0.089-3.663,0.567-5.038,1.942C0.639,3.389,0.161,5.102,0.072,7.052C0.014,8.332,0,8.741,0,12
		c0,3.259,0.014,3.668,0.072,4.948c0.089,1.95,0.567,3.663,1.942,5.038c1.375,1.375,3.088,1.853,5.038,1.942
		C8.332,23.986,8.741,24,12,24s3.668-0.014,4.948-0.072c1.95-0.089,3.663-0.567,5.038-1.942c1.375-1.375,1.853-3.088,1.942-5.038
		C23.986,15.668,24,15.259,24,12c0-3.259-0.014-3.668-0.072-4.948C23.839,5.103,23.361,3.389,21.986,2.014z M21.768,16.849
		c-0.062,1.366-0.336,2.633-1.311,3.608s-2.242,1.249-3.608,1.311c-1.265,0.058-1.645,0.07-4.849,0.07s-3.584-0.012-4.849-0.07
		c-1.366-0.062-2.633-0.336-3.608-1.311s-1.249-2.242-1.311-3.608c-0.058-1.265-0.07-1.645-0.07-4.849
		c0-3.204,0.012-3.584,0.07-4.849c0.062-1.366,0.336-2.633,1.311-3.608c0.975-0.975,2.242-1.249,3.608-1.311
		C8.416,2.174,8.796,2.162,12,2.162s3.584,0.012,4.849,0.07c1.366,0.062,2.633,0.336,3.608,1.311
		c0.975,0.975,1.249,2.242,1.311,3.608c0.058,1.265,0.07,1.645,0.07,4.849C21.838,15.204,21.826,15.584,21.768,16.849z"/>
		<path fill="currentColor" d="M12,5.838c-3.403,0-6.162,2.759-6.162,6.162S8.597,18.162,12,18.162s6.162-2.759,6.162-6.162S15.403,5.838,12,5.838z M12,16
		c-2.209,0-4-1.791-4-4c0-2.209,1.791-4,4-4s4,1.791,4,4C16,14.209,14.209,16,12,16z"/>
		<circle fill="currentColor" cx="18.406" cy="5.594" r="1.44"/>		
	</symbol>

	<symbol id="social-linkedin" viewBox="0 0 24 24">
		<path fill="currentColor" d="M23,0H1C0.44772,0,0,0.44772,0,1v22c0,0.55228,0.44772,1,1,1h22c0.55228,0,1-0.44772,1-1V1
		C24,0.44772,23.55228,0,23,0z M7.11947,20.45053H3.55632V8.9974h3.56315V20.45053z M5.33887,7.4326
		c-1.14323,0-2.0651-0.92479-2.0651-2.06443c0-1.13933,0.92187-2.06413,2.0651-2.06413c1.13867,0,2.06313,0.92481,2.06313,2.06413
		C7.402,6.50781,6.47755,7.4326,5.33887,7.4326z M20.45153,20.45053h-3.55927v-5.56967c0-1.32813-0.0228-3.0368-1.8496-3.0368
		c-1.8522,0-2.1348,1.4476-2.1348,2.94173v5.66473H9.35253V8.9974h3.41213v1.56573h0.0488
		c0.4746-0.9004,1.63607-1.84993,3.36787-1.84993c3.60413,0,4.2702,2.37147,4.2702,5.45607V20.45053z"/>		
	</symbol>

	<symbol id="social-pinterest" viewBox="0 0 24 24">
		<path fill="currentColor" d="M12.00005,0.00008C5.37265,0.00008,0,5.37261,0,11.99999c0,5.08371,3.16291,9.42584,7.62688,11.17431
		c-0.10497-0.94943-0.19962-2.40571,0.04164-3.44239c0.21791-0.93635,1.40715-5.96482,1.40715-5.96482
		s-0.35904-0.71867-0.35904-1.78139c0-1.66855,0.9672-2.91425,2.17135-2.91425c1.02379,0,1.51834,0.7687,1.51834,1.69034
		c0,1.02958-0.65548,2.56892-0.99387,3.99529c-0.28266,1.19464,0.59901,2.16877,1.777,2.16877
		c2.13293,0,3.77233-2.24911,3.77233-5.49529c0-2.87312-2.06443-4.88198-5.01248-4.88198c-3.41432,0-5.41843,2.56104-5.41843,5.20759
		c0,1.03139,0.3973,2.13731,0.89302,2.7385c0.09799,0.1189,0.11233,0.22296,0.08315,0.34405
		c-0.09103,0.37925-0.29347,1.19438-0.33319,1.36111c-0.05236,0.21961-0.17397,0.26616-0.40133,0.16043
		c-1.49883-0.69777-2.4358-2.88899-2.4358-4.64884c0-3.78535,2.75035-7.26171,7.92877-7.26171
		c4.16266,0,7.39776,2.96622,7.39776,6.93056c0,4.13572-2.60759,7.46404-6.22682,7.46404c-1.21606,0-2.35911-0.63174-2.75038-1.37801
		c0,0-0.60171,2.29128-0.74752,2.85262c-0.27107,1.04225-1.00241,2.34878-1.49163,3.14584
		c1.12285,0.3476,2.31607,0.53515,3.55316,0.53515C18.62746,23.99992,24,18.62739,24,11.99999
		C24,5.37261,18.62746,0.00008,12.00005,0.00008z"/>		
	</symbol>

	<symbol id="social-twitter" viewBox="0 0 24 24">
		<path fill="currentColor" d="M24,4.55671c-0.88301,0.39161-1.83194,0.65634-2.82804,0.77533
		c1.01666-0.60936,1.7974-1.57433,2.16501-2.72414c-0.95134,0.56428-2.00512,0.97406-3.12672,1.1949
		c-0.89818-0.957-2.17787-1.55496-3.59403-1.55496c-2.71943,0-4.92403,2.20462-4.92403,4.92378
		c0,0.38595,0.04355,0.7617,0.12748,1.12211C7.72747,8.0884,4.09932,6.12812,1.67078,3.14911
		C1.24693,3.87636,1.00415,4.72216,1.00415,5.62454c0,1.70824,0.86929,3.21537,2.19047,4.09838
		C2.38748,9.69738,1.62825,9.47585,0.96437,9.10704c-0.00034,0.02058-0.00042,0.04115-0.00042,0.0619
		c0,2.38572,1.69726,4.37584,3.9498,4.82815c-0.41321,0.11247-0.8482,0.17266-1.29725,0.17266
		c-0.31729,0-0.62574-0.03087-0.9264-0.0883c0.6266,1.95617,2.445,3.37979,4.59964,3.41957
		c-1.68518,1.32058-3.80827,2.10774-6.11516,2.10774c-0.39745,0-0.7894-0.02332-1.17458-0.06875
		c2.17907,1.39704,4.76724,2.21216,7.54787,2.21216c9.05687,0,14.00945-7.50286,14.00945-14.00958
		c0-0.21347-0.00479-0.42582-0.01423-0.63697C22.50505,6.41137,23.33989,5.54413,24,4.55671z"/>		
	</symbol>

	<symbol id="social-youtube" viewBox="0 0 24 24">
		<path fill="currentColor" d="M23.76034,7.2015c0,0-0.23452-1.65387-0.95409-2.38218c-0.91263-0.9559-1.9356-0.96064-2.40472-1.01659
		c-3.35847-0.24277-8.39631-0.24277-8.39631-0.24277h-0.01043c0,0-5.03774,0-8.39631,0.24277
		C3.12932,3.85868,2.10672,3.86342,1.19375,4.81932C0.47418,5.54763,0.24002,7.2015,0.24002,7.2015S0,9.14366,0,11.08582v1.82078
		c0,1.94214,0.24002,3.8843,0.24002,3.8843s0.23416,1.65388,0.95374,2.38219c0.91296,0.9559,2.1122,0.92568,2.64633,1.02586
		c1.92005,0.18411,8.15993,0.24109,8.15993,0.24109s5.04304-0.0076,8.40151-0.25036c0.46912-0.05597,1.49209-0.06069,2.40472-1.01659
		c0.71957-0.72831,0.95409-2.38219,0.95409-2.38219S24,14.84875,24,12.9066v-1.82078C24,9.14366,23.76034,7.2015,23.76034,7.2015z
		M9.52229,15.11305l-0.0011-6.74336l6.48491,3.38343L9.52229,15.11305z"/>		
	</symbol>

	<symbol id="social-email" viewBox="0 0 24 24">
		<path fill="currentColor" d="M23,2H1C0.448,2,0,2.447,0,3v18c0,0.553,0.448,1,1,1h22c0.552,0,1-0.447,1-1V3C24,2.447,23.552,2,23,2z M5.707,17.707
		C5.512,17.902,5.256,18,5,18s-0.512-0.098-0.707-0.293c-0.391-0.391-0.391-1.023,0-1.414l2.5-2.5l1.414,1.414L5.707,17.707z
		M19.707,17.707C19.512,17.902,19.256,18,19,18s-0.512-0.098-0.707-0.293l-2.5-2.5l1.414-1.414l2.5,2.5
		C20.098,16.684,20.098,17.316,19.707,17.707z M19.707,7.707l-7,7C12.512,14.902,12.256,15,12,15s-0.512-0.098-0.707-0.293l-7-7
		c-0.391-0.391-0.391-1.023,0-1.414s1.023-0.391,1.414,0L12,12.586l6.293-6.293c0.391-0.391,1.023-0.391,1.414,0
		S20.098,7.316,19.707,7.707z"/>
	</symbol>

	<symbol id="search" viewBox="0 0 24 24">
		<path fill="currentColor" d="M3,10c0,2,0.6,3.9,1.7,5.5l-4.4,4.4c-0.4,0.4-0.4,1,0,1.4l1.4,1.4c0.4,0.4,1,0.4,1.4,0l4.4-4.4C9.1,19.4,11,20,13,20
		c5.5,0,10-4.5,10-10S18.5,0,13,0S3,4.5,3,10z M5,10c0-4.4,3.6-8,8-8s8,3.6,8,8s-3.6,8-8,8S5,14.4,5,10z"/>
	</symbol>

	<symbol id="checkmark" viewBox="0 0 24 24">
		<path fill="currentColor" d="M9.293,16.707C9.488,16.902,9.744,17,10,17s0.512-0.098,0.707-0.293l8-8c0.391-0.391,0.391-1.023,0-1.414
		s-1.023-0.391-1.414,0L10,14.586l-3.293-3.293c-0.391-0.391-1.023-0.391-1.414,0s-0.391,1.023,0,1.414L9.293,16.707z"/>
	</symbol>

	<symbol id="add" viewBox="0 0 24 24">
			<path fill="currentColor" d="M2,13h9v9c0,0.553,0.447,1,1,1s1-0.447,1-1v-9h9c0.553,0,1-0.447,1-1s-0.447-1-1-1h-9V2c0-0.553-0.447-1-1-1s-1,0.447-1,1v9
	H2c-0.553,0-1,0.447-1,1S1.447,13,2,13z"/>
	</symbol>

	<symbol id="subtract" viewBox="0 0 24 24">
		<path fill="currentColor" d="M22,11H2c-0.552,0-1,0.447-1,1s0.448,1,1,1h20c0.552,0,1-0.447,1-1S22.552,11,22,11z"/>
	</symbol>

	<symbol id="remove" viewBox="0 0 24 24">
		<path fill="currentColor" d="M19.707,4.293c-0.391-0.391-1.023-0.391-1.414,0L12,10.586L5.707,4.293c-0.391-0.391-1.023-0.391-1.414,0
	s-0.391,1.023,0,1.414L10.586,12l-6.293,6.293c-0.391,0.391-0.391,1.023,0,1.414C4.488,19.902,4.744,20,5,20
	s0.512-0.098,0.707-0.293L12,13.414l6.293,6.293C18.488,19.902,18.744,20,19,20s0.512-0.098,0.707-0.293
	c0.391-0.391,0.391-1.023,0-1.414L13.414,12l6.293-6.293C20.098,5.316,20.098,4.684,19.707,4.293z"/>
	</symbol>

	<symbol id="link" viewBox="0 0 24 24">
		<path fill="currentColor" d="M7.414,11.021L6.021,9.586l-3.213,3.121c-2.339,2.34-2.339,6.146,0,8.485c1.17,1.17,2.706,1.754,4.243,1.754
		s3.073-0.584,4.243-1.754l2.828-2.828c1.133-1.134,1.757-2.641,1.757-4.243s-0.624-3.109-1.757-4.242l-0.707-0.707L12,10.586
		l0.707,0.707c0.755,0.756,1.171,1.76,1.171,2.828s-0.416,2.073-1.171,2.829l-2.828,2.828c-1.56,1.559-4.098,1.559-5.657,0
		c-1.559-1.56-1.559-4.098-0.01-5.646L7.414,11.021z"/>
		<path fill="currentColor" d="M16.586,12.979l1.394,1.435l3.213-3.121c2.339-2.34,2.339-6.146,0-8.485c-2.34-2.34-6.146-2.34-8.485,0L9.879,5.636
		C8.746,6.77,8.122,8.276,8.122,9.879s0.624,3.109,1.757,4.242l0.707,0.707L12,13.414l-0.707-0.707
		c-0.755-0.756-1.171-1.76-1.171-2.828s0.416-2.073,1.171-2.829l2.828-2.828c1.56-1.559,4.098-1.559,5.657,0
		c1.559,1.56,1.559,4.098,0.01,5.646L16.586,12.979z"/>
	</symbol>

	<symbol id="attachment" viewBox="0 0 24 24">
		<polygon fill="currentColor" points="6,10 12,17 18,10 13,10 13,1 11,1 11,10 "/>
		<path fill="currentColor" d="M20,21H4v-6H2v7c0,0.6,0.4,1,1,1h18c0.6,0,1-0.4,1-1v-7h-2V21z"/>
	</symbol>


	<symbol id="zoom" viewBox="0 0 24 24">
		<path fill="currentColor" d="M10,0C4.486,0,0,4.486,0,10s4.486,10,10,10c2.035,0,3.928-0.614,5.509-1.663l4.369,4.37c0.391,0.391,1.024,0.391,1.414,0
	l1.414-1.414c0.391-0.391,0.391-1.024,0-1.414l-4.37-4.37C19.386,13.928,20,12.035,20,10C20,4.486,15.514,0,10,0z M10,18
	c-4.411,0-8-3.589-8-8s3.589-8,8-8s8,3.589,8,8S14.411,18,10,18z"/>

	</symbol>
	


</svg>