<?xml version="1.0" encoding="utf-8"?>
<!-- Generator: Adobe Illustrator 21.1.0, SVG Export Plug-In . SVG Version: 6.00 Build 0)  -->
<svg version="1.1" id="Layer_1" xmlns="http://www.w3.org/2000/svg" xmlns:xlink="http://www.w3.org/1999/xlink" x="0px" y="0px"
	 viewBox="0 0 269.8 40" style="enable-background:new 0 0 269.8 40;" xml:space="preserve">
<style type="text/css">
	.st0{fill-rule:evenodd;clip-rule:evenodd;fill:#2466CC;}
	.st1{fill:#2466CC;}
</style>
<path class="st0" d="M0,1.9C0,0.8,0.8,0,1.9,0s1.9,0.8,1.9,1.9c0,1-0.8,1.9-1.9,1.9S0,2.9,0,1.9"/>
<path class="st0" d="M4.7,8.8c0-1.2,1-2.1,2.1-2.1C8,6.7,9,7.7,9,8.8C9,10,8,11,6.8,11C5.6,11,4.7,10,4.7,8.8"/>
<path class="st0" d="M9.4,15.8c0-1.3,1.1-2.4,2.4-2.4c1.3,0,2.4,1.1,2.4,2.4c0,1.3-1.1,2.4-2.4,2.4C10.5,18.2,9.4,17.1,9.4,15.8"/>
<path class="st0" d="M14.1,22.8c0-1.5,1.2-2.7,2.7-2.7c1.5,0,2.7,1.2,2.7,2.7c0,1.5-1.2,2.7-2.7,2.7C15.3,25.5,14.1,24.3,14.1,22.8"
	/>
<path class="st0" d="M18.8,29.8c0-1.6,1.3-3,3-3s3,1.3,3,3s-1.3,3-3,3S18.8,31.4,18.8,29.8"/>
<path class="st0" d="M23.4,36.7c0-1.8,1.4-3.2,3.2-3.2c1.8,0,3.2,1.4,3.2,3.2c0,1.8-1.4,3.2-3.2,3.2C24.9,40,23.4,38.5,23.4,36.7"/>
<path class="st0" d="M10.5,1.9c0-1,0.8-1.9,1.9-1.9c1,0,1.9,0.8,1.9,1.9c0,1-0.8,1.9-1.9,1.9C11.4,3.7,10.5,2.9,10.5,1.9"/>
<path class="st0" d="M15.2,8.8c0-1.2,1-2.1,2.1-2.1s2.1,1,2.1,2.1c0,1.2-1,2.1-2.1,2.1S15.2,10,15.2,8.8"/>
<path class="st0" d="M19.9,15.8c0-1.3,1.1-2.4,2.4-2.4c1.3,0,2.4,1.1,2.4,2.4c0,1.3-1.1,2.4-2.4,2.4C21,18.2,19.9,17.1,19.9,15.8"/>
<path class="st0" d="M24.6,22.8c0-1.5,1.2-2.7,2.7-2.7c1.5,0,2.7,1.2,2.7,2.7c0,1.5-1.2,2.7-2.7,2.7C25.8,25.5,24.6,24.3,24.6,22.8"
	/>
<path class="st0" d="M29.3,29.8c0-1.6,1.3-3,3-3c1.6,0,3,1.3,3,3s-1.3,3-3,3C30.6,32.7,29.3,31.4,29.3,29.8"/>
<path class="st0" d="M20.1,1.9C20.1,0.8,21,0,22,0c1,0,1.9,0.8,1.9,1.9c0,1-0.8,1.9-1.9,1.9C21,3.7,20.1,2.9,20.1,1.9"/>
<path class="st0" d="M24.8,8.8c0-1.2,1-2.1,2.1-2.1c1.2,0,2.1,1,2.1,2.1c0,1.2-1,2.1-2.1,2.1C25.8,11,24.8,10,24.8,8.8"/>
<path class="st0" d="M29.5,15.8c0-1.3,1.1-2.4,2.4-2.4c1.3,0,2.4,1.1,2.4,2.4c0,1.3-1.1,2.4-2.4,2.4C30.6,18.2,29.5,17.1,29.5,15.8"
	/>
<path class="st0" d="M29.7,1.9c0-1,0.8-1.9,1.9-1.9c1,0,1.9,0.8,1.9,1.9c0,1-0.8,1.9-1.9,1.9C30.6,3.7,29.7,2.9,29.7,1.9"/>
<path class="st0" d="M34,22.1c0-1.5,1.2-2.7,2.7-2.7c1.5,0,2.7,1.2,2.7,2.7c0,1.5-1.2,2.7-2.7,2.7C35.2,24.7,34,23.5,34,22.1"/>
<path class="st0" d="M34.5,8.8c0-1.2,1-2.1,2.1-2.1c1.2,0,2.1,1,2.1,2.1c0,1.2-1,2.1-2.1,2.1C35.5,11,34.5,10,34.5,8.8"/>
<path class="st0" d="M73.3,1.9c0-1-0.8-1.9-1.9-1.9c-1,0-1.9,0.8-1.9,1.9c0,1,0.8,1.9,1.9,1.9C72.5,3.7,73.3,2.9,73.3,1.9"/>
<path class="st0" d="M68.6,8.8c0-1.2-1-2.1-2.1-2.1c-1.2,0-2.1,1-2.1,2.1c0,1.2,1,2.1,2.1,2.1C67.7,11,68.6,10,68.6,8.8"/>
<path class="st0" d="M64,15.8c0-1.3-1.1-2.4-2.4-2.4c-1.3,0-2.4,1.1-2.4,2.4c0,1.3,1.1,2.4,2.4,2.4C62.9,18.2,64,17.1,64,15.8"/>
<path class="st0" d="M59.3,22.8c0-1.5-1.2-2.7-2.7-2.7c-1.5,0-2.7,1.2-2.7,2.7c0,1.5,1.2,2.7,2.7,2.7C58.1,25.5,59.3,24.3,59.3,22.8
	"/>
<path class="st0" d="M54.6,29.8c0-1.6-1.3-3-3-3c-1.6,0-3,1.3-3,3s1.3,3,3,3C53.3,32.7,54.6,31.4,54.6,29.8"/>
<path class="st0" d="M49.9,36.7c0-1.8-1.4-3.2-3.2-3.2s-3.2,1.4-3.2,3.2c0,1.8,1.4,3.2,3.2,3.2S49.9,38.5,49.9,36.7"/>
<path class="st0" d="M62.8,1.9c0-1-0.8-1.9-1.9-1.9c-1,0-1.9,0.8-1.9,1.9c0,1,0.8,1.9,1.9,1.9C61.9,3.7,62.8,2.9,62.8,1.9"/>
<path class="st0" d="M58.1,8.8c0-1.2-1-2.1-2.1-2.1s-2.1,1-2.1,2.1c0,1.2,1,2.1,2.1,2.1S58.1,10,58.1,8.8"/>
<path class="st0" d="M53.4,15.8c0-1.3-1.1-2.4-2.4-2.4c-1.3,0-2.4,1.1-2.4,2.4c0,1.3,1.1,2.4,2.4,2.4C52.3,18.2,53.4,17.1,53.4,15.8
	"/>
<path class="st0" d="M48.7,22.8c0-1.5-1.2-2.7-2.7-2.7c-1.5,0-2.7,1.2-2.7,2.7c0,1.5,1.2,2.7,2.7,2.7C47.5,25.5,48.7,24.3,48.7,22.8
	"/>
<path class="st0" d="M44,29.8c0-1.6-1.3-3-3-3c-1.6,0-3,1.3-3,3s1.3,3,3,3C42.7,32.7,44,31.4,44,29.8"/>
<path class="st0" d="M53.2,1.9c0-1-0.8-1.9-1.9-1.9c-1,0-1.9,0.8-1.9,1.9c0,1,0.8,1.9,1.9,1.9C52.4,3.7,53.2,2.9,53.2,1.9"/>
<path class="st0" d="M48.5,8.8c0-1.2-1-2.1-2.1-2.1c-1.2,0-2.1,1-2.1,2.1c0,1.2,1,2.1,2.1,2.1C47.5,11,48.5,10,48.5,8.8"/>
<path class="st0" d="M43.8,15.8c0-1.3-1.1-2.4-2.4-2.4c-1.3,0-2.4,1.1-2.4,2.4c0,1.3,1.1,2.4,2.4,2.4C42.7,18.2,43.8,17.1,43.8,15.8
	"/>
<path class="st0" d="M43.6,1.9c0-1-0.8-1.9-1.9-1.9c-1,0-1.9,0.8-1.9,1.9c0,1,0.8,1.9,1.9,1.9C42.8,3.7,43.6,2.9,43.6,1.9"/>
<g>
	<path class="st1" d="M103.3,16.8L99.9,6.3l-3.4,10.5h-2l-4-12.6h1.7L95.5,15L99,4.2h1.8l3.5,10.8l3.4-10.8h1.6l-4,12.6H103.3z"/>
	<path class="st1" d="M117.9,16.8v-1.1c-0.7,0.8-1.7,1.3-3,1.3c-2.4,0-4.3-1.9-4.3-4.5c0-2.6,1.9-4.5,4.3-4.5c1.3,0,2.3,0.5,3,1.3
		V8.2h1.5v8.6H117.9z M112.2,12.5c0,1.7,1.2,3.1,2.9,3.1c1.7,0,2.9-1.3,2.9-3.1c0-1.7-1.2-3.1-2.9-3.1
		C113.3,9.5,112.2,10.8,112.2,12.5z"/>
	<path class="st1" d="M124.8,9.6v4.2c0,1.3,0.7,1.8,1.6,1.8c0.6,0,1.3-0.2,1.7-0.6l0.7,1.1c-0.7,0.5-1.5,0.8-2.6,0.8
		c-1.8,0-3-1-3-3.2V9.6h-1.8V8.2h1.8V5.6h1.5v2.7h3.6v1.3H124.8z"/>
	<path class="st1" d="M138.3,12.5c0,0.2,0,0.4,0,0.5h-6.7c0.2,1.8,1.4,2.6,2.9,2.6c1,0,1.9-0.4,2.6-1l0.8,1c-1.1,1-2.3,1.3-3.5,1.3
		c-2.5,0-4.3-1.8-4.3-4.5c0-2.6,1.8-4.5,4.2-4.5C136.6,8.1,138.3,9.9,138.3,12.5z M131.6,11.9h5.2c-0.2-1.5-1.2-2.5-2.5-2.5
		C132.8,9.4,131.8,10.4,131.6,11.9z"/>
	<path class="st1" d="M146.3,8.3l-0.4,1.4c-0.4-0.2-1-0.3-1.5-0.3c-1.3,0-2.2,1-2.2,2.6v4.8h-1.5V8.2h1.4v1.1
		c0.6-0.8,1.5-1.3,2.5-1.3C145.4,8.1,145.8,8.1,146.3,8.3z"/>
	<path class="st1" d="M153.4,16.8V4.2h8.9v1.5H155v4h7v1.5h-7v4.1h7.4v1.5H153.4z"/>
	<path class="st1" d="M173.1,11.5v5.3h-1.5V12c0-1.6-0.8-2.5-2.3-2.5c-1.4,0-2.5,0.9-2.5,2.5v4.8h-1.5V8.2h1.5v1.1
		c0.7-1,1.8-1.3,2.8-1.3C171.7,8.1,173.1,9.4,173.1,11.5z"/>
	<path class="st1" d="M178.5,16.8l-3.6-8.6h1.6l2.9,7.1l2.9-7.1h1.6l-3.6,8.6H178.5z"/>
	<path class="st1" d="M187.4,5.2c0,0.6-0.5,1-1.1,1c-0.6,0-1-0.4-1-1c0-0.6,0.5-1.1,1-1.1C186.9,4.2,187.4,4.6,187.4,5.2z
		 M185.6,16.8V8.2h1.5v8.6H185.6z"/>
	<path class="st1" d="M198.6,12.5c0,2.5-1.9,4.5-4.5,4.5s-4.5-1.9-4.5-4.5s1.9-4.5,4.5-4.5S198.6,10,198.6,12.5z M191,12.5
		c0,1.8,1.3,3.1,3,3.1c1.7,0,3-1.3,3-3.1s-1.3-3.1-3-3.1C192.3,9.5,191,10.7,191,12.5z"/>
	<path class="st1" d="M206.5,8.3l-0.4,1.4c-0.4-0.2-1-0.3-1.5-0.3c-1.3,0-2.2,1-2.2,2.6v4.8H201V8.2h1.4v1.1
		c0.6-0.8,1.5-1.3,2.5-1.3C205.6,8.1,206.1,8.1,206.5,8.3z"/>
	<path class="st1" d="M216.4,11.5v5.3h-1.5V12c0-1.6-0.8-2.5-2.3-2.5c-1.4,0-2.5,0.9-2.5,2.5v4.8h-1.5V8.2h1.5v1.1
		c0.7-1,1.8-1.3,2.8-1.3C214.9,8.1,216.4,9.4,216.4,11.5z"/>
	<path class="st1" d="M233.6,11.5v5.3h-1.5V12c0-1.6-0.8-2.5-2.3-2.5c-1.4,0-2.5,1-2.5,2.5v4.8h-1.5V12c0-1.6-0.8-2.5-2.3-2.5
		c-1.4,0-2.5,0.9-2.5,2.5v4.8h-1.5V8.2h1.5v1.1c0.7-1,1.8-1.3,2.8-1.3c1.5,0,2.6,0.6,3.2,1.7c0.7-1.3,2-1.7,3.2-1.7
		C232.1,8.1,233.6,9.4,233.6,11.5z"/>
	<path class="st1" d="M244.2,12.5c0,0.2,0,0.4,0,0.5h-6.7c0.2,1.8,1.4,2.6,2.9,2.6c1,0,1.9-0.4,2.6-1l0.8,1c-1.1,1-2.3,1.3-3.5,1.3
		c-2.5,0-4.3-1.8-4.3-4.5c0-2.6,1.8-4.5,4.2-4.5C242.5,8.1,244.2,9.9,244.2,12.5z M237.5,11.9h5.2c-0.2-1.5-1.2-2.5-2.5-2.5
		C238.7,9.4,237.7,10.4,237.5,11.9z"/>
	<path class="st1" d="M254.5,11.5v5.3H253V12c0-1.6-0.8-2.5-2.3-2.5c-1.4,0-2.5,0.9-2.5,2.5v4.8h-1.5V8.2h1.5v1.1
		c0.7-1,1.8-1.3,2.8-1.3C253.1,8.1,254.5,9.4,254.5,11.5z"/>
	<path class="st1" d="M259.8,9.6v4.2c0,1.3,0.7,1.8,1.6,1.8c0.6,0,1.3-0.2,1.7-0.6l0.7,1.1c-0.7,0.5-1.5,0.8-2.6,0.8
		c-1.8,0-3-1-3-3.2V9.6h-1.8V8.2h1.8V5.6h1.5v2.7h3.6v1.3H259.8z"/>
</g>
<g>
	<path class="st1" d="M100.8,36.6l-1.4-3.4h-6.1L92,36.6h-1.6L95.4,24h2l5.1,12.6H100.8z M98.8,31.7l-2.4-6.1l-2.5,6.1H98.8z"/>
	<path class="st1" d="M107.4,29.2c-1.2,0-1.9,0.5-1.9,1.3c0,0.7,0.6,1,1.7,1.1l1,0.1c1.8,0.2,2.9,1,2.9,2.4c0,1.6-1.5,2.7-3.8,2.7
		c-1.1,0-2.5-0.3-3.6-1.1l0.7-1.1c0.6,0.5,1.5,0.9,2.9,0.9c1.4,0,2.3-0.5,2.3-1.3c0-0.6-0.6-1-1.7-1.2l-1-0.1
		c-1.9-0.2-2.8-1.1-2.8-2.4c0-1.6,1.4-2.6,3.4-2.6c1.4,0,2.6,0.4,3.4,0.9l-0.6,1.1C109.6,29.6,108.5,29.2,107.4,29.2z"/>
	<path class="st1" d="M116.4,29.2c-1.2,0-1.9,0.5-1.9,1.3c0,0.7,0.6,1,1.7,1.1l1,0.1c1.8,0.2,2.9,1,2.9,2.4c0,1.6-1.5,2.7-3.8,2.7
		c-1.1,0-2.5-0.3-3.6-1.1l0.7-1.1c0.6,0.5,1.5,0.9,2.9,0.9c1.4,0,2.3-0.5,2.3-1.3c0-0.6-0.6-1-1.7-1.2l-1-0.1
		c-1.9-0.2-2.8-1.1-2.8-2.4c0-1.6,1.4-2.6,3.4-2.6c1.4,0,2.6,0.4,3.4,0.9l-0.6,1.1C118.6,29.6,117.5,29.2,116.4,29.2z"/>
	<path class="st1" d="M130.7,32.3c0,2.5-1.9,4.5-4.5,4.5s-4.5-1.9-4.5-4.5s1.9-4.5,4.5-4.5S130.7,29.8,130.7,32.3z M123.2,32.3
		c0,1.8,1.3,3.1,3,3.1c1.7,0,3-1.3,3-3.1s-1.3-3.1-3-3.1C124.5,29.3,123.2,30.5,123.2,32.3z"/>
	<path class="st1" d="M140.1,29.2l-0.9,1c-0.6-0.6-1.4-1-2.3-1c-1.6,0-2.9,1.3-2.9,3.1s1.3,3.1,2.9,3.1c0.9,0,1.7-0.4,2.3-1l0.9,1
		c-0.8,0.9-1.9,1.3-3.2,1.3c-2.6,0-4.4-1.9-4.4-4.5s1.8-4.5,4.4-4.5C138.2,27.9,139.4,28.3,140.1,29.2z"/>
	<path class="st1" d="M144.2,25c0,0.6-0.5,1-1.1,1c-0.6,0-1-0.4-1-1c0-0.6,0.5-1.1,1-1.1C143.7,24,144.2,24.4,144.2,25z M142.4,36.6
		V28h1.5v8.6H142.4z"/>
	<path class="st1" d="M153.6,36.6v-1.1c-0.7,0.8-1.7,1.3-3,1.3c-2.4,0-4.3-1.9-4.3-4.5c0-2.6,1.9-4.5,4.3-4.5c1.3,0,2.3,0.5,3,1.3
		V28h1.5v8.6H153.6z M147.8,32.3c0,1.7,1.2,3.1,2.9,3.1c1.7,0,2.9-1.3,2.9-3.1c0-1.7-1.2-3.1-2.9-3.1
		C149,29.3,147.8,30.6,147.8,32.3z"/>
	<path class="st1" d="M160.4,29.4v4.2c0,1.3,0.7,1.8,1.6,1.8c0.6,0,1.3-0.2,1.7-0.6l0.7,1.1c-0.7,0.5-1.5,0.8-2.6,0.8
		c-1.8,0-3-1-3-3.2v-4.2h-1.8V28h1.8v-2.7h1.5V28h3.6v1.3H160.4z"/>
	<path class="st1" d="M168.1,25c0,0.6-0.5,1-1.1,1c-0.6,0-1-0.4-1-1c0-0.6,0.5-1.1,1-1.1C167.7,24,168.1,24.4,168.1,25z M166.4,36.6
		V28h1.5v8.6H166.4z"/>
	<path class="st1" d="M179.3,32.3c0,2.5-1.9,4.5-4.5,4.5s-4.5-1.9-4.5-4.5s1.9-4.5,4.5-4.5S179.3,29.8,179.3,32.3z M171.8,32.3
		c0,1.8,1.3,3.1,3,3.1c1.7,0,3-1.3,3-3.1s-1.3-3.1-3-3.1C173.1,29.3,171.8,30.5,171.8,32.3z"/>
	<path class="st1" d="M189.6,31.3v5.3h-1.5v-4.8c0-1.6-0.8-2.5-2.3-2.5c-1.4,0-2.5,0.9-2.5,2.5v4.8h-1.5V28h1.5v1.1
		c0.7-1,1.8-1.3,2.8-1.3C188.2,27.9,189.6,29.2,189.6,31.3z"/>
	<path class="st1" d="M205.9,32.3c0,2.5-1.9,4.5-4.5,4.5s-4.5-1.9-4.5-4.5s1.9-4.5,4.5-4.5S205.9,29.8,205.9,32.3z M198.3,32.3
		c0,1.8,1.3,3.1,3,3.1c1.7,0,3-1.3,3-3.1s-1.3-3.1-3-3.1C199.6,29.3,198.3,30.5,198.3,32.3z"/>
	<path class="st1" d="M210.6,29.4v7.2h-1.5v-7.2h-1.9V28h1.9v-1.5c0-1.8,0.8-3.1,2.8-3.1c1,0,1.7,0.3,2.3,0.6l-0.5,1.2
		c-0.5-0.3-1.1-0.5-1.7-0.5c-1,0-1.5,0.6-1.5,1.8V28h3.3v1.3H210.6z"/>
	<path class="st1" d="M225.6,25.5v11.1H224V25.5h-4.3V24h10.2v1.5H225.6z"/>
	<path class="st1" d="M239.4,32.3c0,0.2,0,0.4,0,0.5h-6.7c0.2,1.8,1.4,2.6,2.9,2.6c1,0,1.9-0.4,2.6-1l0.8,1c-1.1,1-2.3,1.3-3.5,1.3
		c-2.5,0-4.3-1.8-4.3-4.5c0-2.6,1.8-4.5,4.2-4.5C237.7,27.9,239.4,29.7,239.4,32.3z M232.7,31.7h5.2c-0.2-1.5-1.2-2.5-2.5-2.5
		C233.8,29.2,232.9,30.2,232.7,31.7z"/>
	<path class="st1" d="M249.3,36.6h-1.8l-2.6-3.3l-2.5,3.3h-1.7l3.4-4.4l-3.3-4.2h1.8l2.5,3.2l2.5-3.2h1.7l-3.3,4.2L249.3,36.6z"/>
	<path class="st1" d="M257.8,36.6v-1.1c-0.7,0.8-1.7,1.3-3,1.3c-2.4,0-4.3-1.9-4.3-4.5c0-2.6,1.9-4.5,4.3-4.5c1.3,0,2.3,0.5,3,1.3
		V28h1.5v8.6H257.8z M252,32.3c0,1.7,1.2,3.1,2.9,3.1c1.7,0,2.9-1.3,2.9-3.1c0-1.7-1.2-3.1-2.9-3.1C253.2,29.3,252,30.6,252,32.3z"
		/>
	<path class="st1" d="M265.4,29.2c-1.2,0-1.9,0.5-1.9,1.3c0,0.7,0.6,1,1.7,1.1l1,0.1c1.8,0.2,2.9,1,2.9,2.4c0,1.6-1.5,2.7-3.8,2.7
		c-1.1,0-2.5-0.3-3.6-1.1l0.7-1.1c0.6,0.5,1.5,0.9,2.9,0.9c1.4,0,2.3-0.5,2.3-1.3c0-0.6-0.6-1-1.7-1.2l-1-0.1
		c-1.9-0.2-2.8-1.1-2.8-2.4c0-1.6,1.4-2.6,3.4-2.6c1.4,0,2.6,0.4,3.4,0.9l-0.6,1.1C267.6,29.6,266.5,29.2,265.4,29.2z"/>
</g>
</svg>
